<svg width="512" height="362" viewBox="0 0 512 362" fill="none" xmlns="http://www.w3.org/2000/svg">
<path d="M29.5 0.619384C19 2.21938 9.9 7.91938 3.9 16.9194L0 22.8194V37.5194C0 51.9194 0.1 52.3194 2.8 56.7194C6.9 63.0194 12.7 68.3194 19 71.4194L24.5 74.1194H256H487.5L493 71.4194C499.6 68.2194 507.2 60.9194 510 55.1194C511.7 51.6194 512 48.9194 512 36.9194V22.8194L508 16.8194C503.7 10.5194 496.7 4.91938 489 1.91938C484.7 0.219384 472.6 0.119384 259.5 0.0193837C135.8 -0.0806163 32.3 0.219384 29.5 0.619384Z" fill="#FAFAFA"/>
<path d="M20.9 145.919C11.9 149.719 5.9 155.019 1.6 163.319C0.3 165.819 0 169.519 0 180.619C0 192.919 0.3 195.219 2.1 198.719C5.1 204.619 12.3 211.419 18.8 214.419L24.5 217.119H256H487.5L493.2 214.419C499.7 211.419 506.9 204.619 509.9 198.719C511.7 195.219 512 192.919 512 180.619C512 168.319 511.7 166.019 509.9 162.519C506.9 156.619 499.7 149.819 493.2 146.819L487.5 144.119L257 143.919L26.5 143.619L20.9 145.919Z" fill="#FAFAFA"/>
<path d="M21.7 288.619C14 291.619 7.9 296.719 2.9 304.519C0 308.919 0 309.219 0 323.619C0 338.019 0 338.319 2.9 342.719C9.3 352.819 18.6 359.019 30.1 360.619C38.6 361.919 473.4 361.919 481.9 360.619C493.4 359.019 502.7 352.819 509.1 342.719C512 338.319 512 338.019 512 323.619C512 309.319 511.9 308.919 509.2 304.519C505.1 298.219 499.3 292.919 493 289.819L487.5 287.119L257 286.919C33.4 286.719 26.4 286.719 21.7 288.619Z" fill="#FAFAFA"/>
</svg>
