<svg width="614" height="554" viewBox="0 0 614 554" fill="none" xmlns="http://www.w3.org/2000/svg">
<path d="M181 1.49997C166.3 4.69997 151.1 15.1 141.7 28.3C129.5 45.4 125.5 60 125.5 87.5C125.5 104.5 126 110.6 128 121C128.6 124 129.4 127.6 129.6 129C132 141 144 167 153.1 180C160.4 190.4 175 204.6 184.5 210.5C188.9 213.2 196.5 217 201.5 218.9C209.5 221.9 211.9 222.3 223.1 222.8C237.1 223.3 242.7 222.4 252.8 217.9C279.8 205.8 294.7 172.6 292.7 129.5C292.3 122.3 291.8 115.3 291.5 113.7C291.3 112.2 290.5 108.2 290 104.7C284.8 74.4 272.5 48.9 253 27.7C233.1 6.19998 205.6 -3.80003 181 1.49997Z" fill="#ECECEC"/>
<path d="M404.9 0.899966C397.9 2.19997 384.2 8.09997 376.9 13C363.5 22 346.5 42 338 58.9C330.4 74.1 325.3 90.8 322.4 110.5C320.2 125.7 320.9 156.6 323.9 169.5C329.9 195.7 347.3 215.9 368.5 221.5C376.3 223.5 395.3 223.5 403.1 221.5C446.2 210.3 481.7 161.9 487.1 106.9C488.6 90.8 487.8 70.3 485 58.6C478.8 31.8 460 10.1 437 2.89997C429.7 0.599966 412.4 -0.400034 404.9 0.899966Z" fill="#ECECEC"/>
<path d="M46.1 162.6C34.1 165.8 23.4 172.8 15.8 182.4C11 188.4 4.69997 201.4 3.19997 208.5C-0.400028 225.1 0.199971 249.4 4.69997 268.5C14.7 311.1 52.6 347.9 91.3 352.7C100.4 353.9 116 353.3 123.6 351.5C147.1 346.1 163.4 328.5 169.2 302.6C170.9 295 171.1 291.6 170.5 281.5C169.7 266.9 168.6 260.9 165 250.5C158.7 232 150.2 217.7 135.1 199.7C120.4 182.3 103.8 170.5 84.7 164.2C76.9 161.6 74.4 161.2 63.7 161.2C55.9 161.1 49.6 161.6 46.1 162.6Z" fill="#ECECEC"/>
<path d="M532.5 163C511 168.8 488.2 185.9 470.8 209.4C435.1 257.5 432.9 314.7 465.8 340.5C478.3 350.4 488.9 353.5 509 353.3C521.4 353.2 524.7 352.8 532.3 350.6C551 345 565.8 336.1 579.2 322.2C604.2 296.2 615.5 263.5 612.9 224C610.8 192.7 594.7 170.5 568.1 162.6C560.4 160.3 541.7 160.5 532.5 163Z" fill="#ECECEC"/>
<path d="M289 242.2C281.8 243 268.6 246.9 260.1 250.6C244.2 257.6 223.3 275.7 213.6 290.8C211.1 294.6 206.1 304.6 202.4 312.9C191.4 338 185.6 345 163.2 360.8C136.5 379.7 123.1 395.5 114.5 418.5C107.3 437.4 107.1 467.4 113.9 487.2C120.7 507 134.7 526 150.5 536.9C170.4 550.7 192 555.9 217.6 553.1C230.3 551.8 238.2 549.3 254.5 541.8C266.9 536 278.6 531.5 284 530.4C308.2 525.5 323.2 527.8 353 540.8C379.5 552.3 388.7 554.4 410 553.6C427.6 553 435.3 551.3 448.6 545.1C460 539.7 467.4 534.5 475.5 525.9C487.7 513.1 495.2 500 500.8 482C503.3 474.1 503.4 472.3 503.4 454.5C503.4 438.3 503 434.4 501.2 427.8C493.8 400.8 479.6 382.3 450.9 362C428.6 346.2 420.6 336.7 412.4 316.5C404.1 295.8 396.4 283.4 385 272C361.1 248.1 327.4 237.6 289 242.2ZM316.9 285C331.7 287.5 343.9 293.8 353.7 304.3C360 311.1 364.2 318.2 370.7 333.1C383.3 362.4 393.6 375.3 420 395C437.6 408.1 442.7 412.6 447.8 419.5C455.6 430 460 443.3 460 456.4C460 473.4 450 492.2 435.5 502.6C426.2 509.2 419.7 511.1 407 511.2C394.4 511.2 385.9 508.8 368 500.3C345.5 489.6 331.9 485.6 314.5 484.5C304.9 484 289.1 484.9 279.5 486.6C271.4 488 258.1 492.8 245 499C226.8 507.7 220.7 509.8 210.4 511C200.9 512 192.2 510.6 183.2 506.5C175.6 503 163.6 490.7 159.3 481.9C155.7 474.6 152 460.6 152 454.5C152.1 444.3 156.7 431.3 163.8 421.3C169.1 413.7 175.1 408.3 193.4 394.2C208.8 382.4 219.1 372.7 226.4 362.9C229.1 359.4 235.9 347 241.5 335.5C255.5 306.9 262.2 299.1 279.5 290.5C291.1 284.8 303.8 282.9 316.9 285Z" fill="#ECECEC"/>
</svg>
